<?xml version="1.0" encoding="utf-8"?>
<!-- Generator: Adobe Illustrator 17.0.0, SVG Export Plug-In . SVG Version: 6.00 Build 0)  -->
<!DOCTYPE svg PUBLIC "-//W3C//DTD SVG 1.1//EN" "http://www.w3.org/Graphics/SVG/1.1/DTD/svg11.dtd">
<svg version="1.1" id="Layer_1" xmlns="http://www.w3.org/2000/svg" xmlns:xlink="http://www.w3.org/1999/xlink" x="0px" y="0px"
	 width="40px" height="40px" viewBox="0 0 40 40" enable-background="new 0 0 40 40" xml:space="preserve">
<g>
	<g>
		<path d="M19.667,14.199c0-2.586-1.507-6.605-4.411-6.605c-0.913,0-1.892,0.466-2.453,1.185c-0.596,0.755-0.769,1.721-0.769,2.657
			c0,2.404,1.365,6.388,4.378,6.388c0.875,0,1.818-0.428,2.381-1.003C19.597,15.992,19.667,14.846,19.667,14.199z M17.775,23.64
			c-0.279-0.036-0.454-0.036-0.804-0.036c-0.315,0-2.207,0.07-3.677,0.576c-0.771,0.285-3.011,1.147-3.011,3.696
			c0,2.549,2.416,4.383,6.163,4.383c3.363,0,5.149-1.656,5.149-3.878C21.594,26.545,20.438,25.579,17.775,23.64z M38.752,0H1.248
			C0.559,0,0,0.572,0,1.276v37.446C0,39.429,0.559,40,1.248,40h37.503C39.441,40,40,39.429,40,38.723V1.277
			C40,0.572,39.441,0,38.752,0z M14.728,33.764c-5.079,0-7.528-2.476-7.528-5.134c0-1.291,0.629-3.121,2.696-4.378
			c2.17-1.364,5.114-1.543,6.69-1.654c-0.492-0.646-1.051-1.328-1.051-2.439c0-0.61,0.175-0.969,0.348-1.4
			c-0.386,0.037-0.769,0.072-1.12,0.072c-3.711,0-5.813-2.838-5.813-5.638c0-1.649,0.734-3.481,2.24-4.81
			c1.998-1.687,4.726-2.145,6.62-2.145h6.9l-2.278,1.464h-2.17c0.805,0.681,2.484,2.117,2.484,4.847
			c0,2.654-1.469,3.914-2.939,5.098c-0.456,0.466-0.982,0.969-0.982,1.76c0,0.788,0.526,1.218,0.91,1.544l1.262,1.002
			c1.541,1.328,2.942,2.549,2.941,5.029C23.939,30.355,20.751,33.764,14.728,33.764z M33.363,19.562h-3.521v3.611h-1.733v-3.611
			h-3.503v-1.793h3.503V14.18h1.733v3.589h3.521V19.562z"/>
	</g>
</g>
</svg>
