<?xml version="1.0" encoding="utf-8"?>
<!-- Generator: Adobe Illustrator 17.0.0, SVG Export Plug-In . SVG Version: 6.00 Build 0)  -->
<!DOCTYPE svg PUBLIC "-//W3C//DTD SVG 1.1//EN" "http://www.w3.org/Graphics/SVG/1.1/DTD/svg11.dtd">
<svg version="1.1" id="Layer_1" xmlns="http://www.w3.org/2000/svg" xmlns:xlink="http://www.w3.org/1999/xlink" x="0px" y="0px"
	 width="40px" height="40px" viewBox="0 0 40 40" enable-background="new 0 0 40 40" xml:space="preserve">
<path d="M36.918,0H2.94C1.314,0,0,0.807,0,2.396v34.211C0,38.199,1.314,40,2.94,40h33.979C38.544,40,40,38.199,40,36.607V2.396
	C40,0.807,38.544,0,36.918,0z M11.742,33.846H5.548V14.359h6.194V33.846z M8.504,11.896c-1.957,0-3.538-1.541-3.538-3.44
	c0-1.896,1.582-3.436,3.538-3.436c1.953,0,3.538,1.54,3.538,3.436C12.042,10.356,10.457,11.896,8.504,11.896z M34.452,33.846h-6.194
	v-9.542c0-2.214-0.24-5.059-3.369-5.059c-3.177,0-3.857,2.41-3.857,4.898v9.703h-6.194V14.359h6.194v3.077h0.295
	c0.816-2.051,2.821-3.244,5.791-3.244c6.177,0,7.333,3.787,7.333,8.925V33.846z"/>
</svg>
