<?xml version="1.0" encoding="utf-8"?>
<!-- Generator: Adobe Illustrator 17.0.0, SVG Export Plug-In . SVG Version: 6.00 Build 0)  -->
<!DOCTYPE svg PUBLIC "-//W3C//DTD SVG 1.1//EN" "http://www.w3.org/Graphics/SVG/1.1/DTD/svg11.dtd">
<svg version="1.1" id="Layer_1" xmlns="http://www.w3.org/2000/svg" xmlns:xlink="http://www.w3.org/1999/xlink" x="0px" y="0px"
	 width="40px" height="31.432px" viewBox="0 0 40 31.432" enable-background="new 0 0 40 31.432" xml:space="preserve">
<path d="M40,3.721c-1.472,0.63-3.054,1.058-4.714,1.251c1.694-0.982,2.995-2.538,3.608-4.392c-1.586,0.911-3.342,1.571-5.211,1.927
	C32.187,0.963,30.054,0,27.693,0c-4.532,0-8.207,3.552-8.207,7.935c0,0.622,0.073,1.228,0.213,1.809
	c-6.82-0.332-12.867-3.49-16.915-8.292c-0.707,1.174-1.111,2.536-1.111,3.99c0,2.753,1.449,5.182,3.651,6.604
	c-1.345-0.04-2.611-0.397-3.717-0.992c-0.001,0.033-0.001,0.067-0.001,0.101c0,3.843,2.829,7.051,6.583,7.779
	c-0.688,0.181-1.414,0.28-2.162,0.28c-0.529,0-1.043-0.051-1.544-0.143c1.044,3.153,4.075,5.446,7.666,5.51
	c-2.808,2.128-6.347,3.397-10.192,3.397c-0.662,0-1.316-0.037-1.958-0.111c3.632,2.251,7.945,3.566,12.579,3.566
	c15.095,0,23.349-12.092,23.349-22.577c0-0.343-0.008-0.686-0.024-1.027C37.508,6.709,38.899,5.311,40,3.721z"/>
</svg>
