<?xml version="1.0" encoding="utf-8"?>
<!-- Generator: Adobe Illustrator 17.0.0, SVG Export Plug-In . SVG Version: 6.00 Build 0)  -->
<!DOCTYPE svg PUBLIC "-//W3C//DTD SVG 1.1//EN" "http://www.w3.org/Graphics/SVG/1.1/DTD/svg11.dtd">
<svg version="1.1" id="Layer_1" xmlns="http://www.w3.org/2000/svg" xmlns:xlink="http://www.w3.org/1999/xlink" x="0px" y="0px"
	 width="40px" height="40px" viewBox="0 0 40 40" enable-background="new 0 0 40 40" xml:space="preserve">
<path d="M37.792,0H2.208C0.988,0,0,0.988,0,2.207v35.585C0,39.011,0.988,40,2.208,40h19.158V24.51h-5.213v-6.037h5.213v-4.452
	c0-5.167,3.155-7.98,7.764-7.98c2.208,0,4.105,0.165,4.658,0.238v5.399l-3.196,0.001c-2.507,0-2.992,1.191-2.992,2.939v3.854h5.978
	l-0.778,6.037h-5.199V40h10.193C39.011,40,40,39.011,40,37.792V2.207C40,0.988,39.011,0,37.792,0z"/>
</svg>
